<svg width="114" height="23" viewBox="0 0 114 23" fill="none" xmlns="http://www.w3.org/2000/svg">
<path d="M53.0863 11.6252C53.0863 14.8909 53.0766 18.1566 53.096 21.4222C53.096 21.8999 52.9605 22.0364 52.4962 22.0169C51.6063 21.9876 50.7261 21.9974 49.8362 22.0169C49.4976 22.0266 49.3719 21.8999 49.3912 21.5685C49.4106 21.0323 49.4009 20.4961 49.3912 19.96C49.3912 19.8333 49.3042 19.7065 49.2655 19.5798C49.1688 19.6578 49.043 19.7163 48.985 19.8138C47.6695 21.7634 45.7156 22.4068 43.5392 22.3971C39.3605 22.3678 36.5167 19.726 35.7912 15.8755C35.4043 13.8088 35.5397 11.7617 36.4393 9.83152C37.6967 7.13124 39.7764 5.58126 42.7653 5.30831C44.6709 5.14259 46.412 5.55202 47.9403 6.74131C48.2208 6.95577 48.453 7.23847 48.7141 7.47243C48.8109 7.56017 48.9366 7.6284 49.0527 7.70639C49.0914 7.56017 49.1881 7.41394 49.1881 7.26772C49.1978 5.48378 49.1978 3.69009 49.1978 1.90616C49.1978 1.23353 49.1978 1.23353 49.8459 1.23353C50.7454 1.23353 51.6547 1.25302 52.5543 1.22378C52.9895 1.20428 53.096 1.36025 53.096 1.77943C53.0766 5.0646 53.0863 8.34003 53.0863 11.6252ZM49.3042 13.8381C49.3042 10.9331 47.2342 8.7787 44.4581 8.74946C41.8077 8.72996 39.4765 10.6796 39.4959 13.8283C39.5152 17.0063 41.8657 18.8682 44.4097 18.8682C47.2052 18.8682 49.2945 16.7236 49.3042 13.8381Z" fill="#1C1C1C"/>
<path d="M112.702 11.6728C112.702 14.8897 112.702 18.1067 112.702 21.3236C112.702 22.006 112.702 22.006 112.006 22.006C111.203 22.006 110.391 21.9865 109.588 22.0157C109.201 22.0255 109.027 21.9085 109.046 21.4991C109.075 20.9629 109.056 20.4268 109.046 19.8906C109.046 19.7834 108.959 19.6761 108.901 19.5592C108.814 19.6177 108.698 19.6664 108.64 19.7444C107.508 21.4893 105.815 22.1815 103.852 22.3374C101.395 22.5324 99.228 21.85 97.4869 20.0466C96.2584 18.7793 95.6104 17.2196 95.3589 15.4941C95.0784 13.603 95.2041 11.7313 96.007 9.96686C97.2644 7.1886 99.3538 5.56064 102.43 5.29743C104.122 5.15121 105.699 5.45341 107.121 6.40874C107.556 6.70119 107.924 7.11061 108.33 7.4518C108.446 7.54929 108.582 7.60778 108.717 7.68576C108.765 7.53954 108.853 7.39331 108.853 7.23734C108.872 6.53546 108.862 5.84334 108.862 5.14146C108.862 4.00091 108.872 2.87011 108.853 1.72956C108.843 1.34938 108.969 1.2129 109.356 1.22265C110.294 1.24215 111.222 1.2519 112.161 1.22265C112.586 1.2129 112.712 1.35913 112.712 1.7783C112.693 5.08297 112.702 8.37789 112.702 11.6728ZM104.026 18.867C106.831 18.8768 108.978 16.6834 108.978 13.8077C108.978 10.9514 106.841 8.75807 104.074 8.74832C101.269 8.74832 99.1506 10.9027 99.141 13.7589C99.1216 16.6834 101.211 18.867 104.026 18.867Z" fill="#1C1C1C"/>
<path d="M1.22244 11.6156C1.22244 8.34995 1.23211 5.08427 1.21277 1.8186C1.21277 1.34093 1.35786 1.20446 1.81249 1.22395C2.71206 1.2532 3.62131 1.2532 4.52088 1.22395C4.98518 1.20446 5.13027 1.34093 5.1206 1.8186C5.10126 5.05503 5.11093 8.28171 5.11093 11.5181C5.11093 11.6449 5.10126 11.7813 5.11093 11.9081C5.13027 12.064 5.17864 12.2103 5.21733 12.3565C5.34308 12.2785 5.49784 12.22 5.60424 12.1128C7.13256 10.4653 8.68021 8.82761 10.1795 7.15091C11.495 5.68867 11.4757 5.66917 13.4006 5.66917C14.2905 5.66917 15.1707 5.66917 16.0606 5.66917C16.1767 5.66917 16.2927 5.72766 16.4088 5.7569C16.3411 5.84464 16.2831 5.94212 16.2057 6.02011C14.1454 8.21347 12.0947 10.4166 10.0247 12.6002C9.71521 12.9219 9.68619 13.1266 9.98605 13.4873C12.2785 16.2168 14.542 18.9658 16.8151 21.7051C16.8731 21.7733 16.9118 21.8611 16.9602 21.939C16.8731 21.9585 16.7764 21.9878 16.6893 21.9878C15.2094 21.9878 13.7198 22.0073 12.2398 21.9683C12.0077 21.9585 11.7078 21.7538 11.553 21.5491C9.6475 19.112 7.76129 16.6652 5.86541 14.2184C5.68163 13.9845 5.44948 13.809 5.23668 13.6043C5.19798 13.8967 5.1206 14.1892 5.1206 14.4816C5.11093 16.7432 5.11093 18.9951 5.11093 21.2567C5.11093 21.9878 5.11093 21.9878 4.36612 21.9878C3.49556 21.9878 2.62501 21.9683 1.75445 21.9975C1.32884 22.0365 1.21277 21.8903 1.21277 21.4614C1.23211 18.1762 1.22244 14.9008 1.22244 11.6156Z" fill="#1C1C1C"/>
<path d="M33.7028 13.8612C33.7318 18.4332 30.4141 21.9913 25.8194 22.3228C23.8172 22.469 21.931 22.1668 20.1898 21.153C17.7233 19.72 16.3884 17.5071 16.1369 14.6704C15.9144 12.1845 16.5335 9.93269 18.2166 8.04152C19.5901 6.50129 21.3506 5.66294 23.3432 5.36074C25.5196 5.0293 27.6379 5.29251 29.5628 6.41356C32.1745 7.93429 33.5481 10.2544 33.6835 13.2958C33.6835 13.4713 33.6932 13.637 33.7028 13.8612ZM20.0061 13.7833C20.0061 16.6882 22.0761 18.8524 24.8618 18.8621C27.6766 18.8719 29.824 16.7077 29.8434 13.832C29.8627 10.9758 27.7057 8.76289 24.9005 8.75315C22.1051 8.75315 20.0061 10.9075 20.0061 13.7833Z" fill="#1C1C1C"/>
<path d="M76.5284 16.3098C76.5284 18.0157 76.5188 19.7217 76.5381 21.4276C76.5478 21.8663 76.422 22.032 75.9674 22.0125C75.1936 21.9735 74.4197 21.9735 73.6459 22.0125C73.1816 22.032 73.0559 21.8565 73.0849 21.4179C73.1139 20.9792 73.0946 20.5405 73.0849 20.1018C73.0849 19.9849 73.0075 19.8679 72.9688 19.7509C72.8624 19.8094 72.727 19.8386 72.6593 19.9264C71.4986 21.6323 69.7961 22.3244 67.8422 22.3634C65.6852 22.4024 63.7216 21.8663 62.3964 19.9166C61.3324 18.3471 61.4195 15.1107 63.6152 13.5997C64.863 12.7419 66.2559 12.3032 67.7261 12.157C69.2641 12.001 70.8118 11.9815 72.3498 11.9133C73.0656 11.884 73.1429 11.7963 73.0849 11.0652C72.9108 9.12528 71.4889 8.31617 69.7768 8.1602C68.055 8.01397 66.488 8.47214 65.1242 9.5542C65.0178 9.63219 64.7372 9.63219 64.6502 9.5542C64.1085 9.04729 63.5959 8.50139 63.0638 7.98473C62.822 7.75077 63.0058 7.62404 63.1606 7.47782C64.1472 6.58097 65.2983 5.97658 66.5848 5.64514C68.6451 5.11873 70.7151 5.02125 72.7754 5.68413C74.9904 6.40551 76.2189 8.01397 76.422 10.3048C76.5961 12.2935 76.5574 14.2919 76.6058 16.2903C76.5671 16.3098 76.5478 16.3098 76.5284 16.3098ZM71.2084 14.5941C71.2084 14.5843 71.2084 14.5746 71.2084 14.5551C70.57 14.6038 69.9219 14.6233 69.2835 14.7013C68.3259 14.828 67.3779 15.023 66.5461 15.5689C66.0914 15.8613 65.7819 16.2513 65.6755 16.7972C65.453 17.85 66.0431 18.8833 67.2038 19.2147C67.8809 19.4097 68.6354 19.4585 69.3415 19.4195C70.7247 19.3415 71.8564 18.7761 72.4755 17.4211C72.8431 16.612 72.8431 15.7541 72.7947 14.8865C72.785 14.7793 72.5916 14.6038 72.4658 14.5941C72.0499 14.5746 71.6243 14.5941 71.2084 14.5941Z" fill="#1C1C1C"/>
<path d="M78.5756 13.8419C78.5756 11.3365 78.5756 8.84099 78.5756 6.33568C78.5756 5.69229 78.5853 5.6728 79.2237 5.6728C80.0459 5.6728 80.8681 5.69229 81.6903 5.66305C82.1256 5.6533 82.261 5.81902 82.2417 6.2382C82.2126 6.72561 82.2223 7.21303 82.2417 7.70044C82.2513 7.87591 82.3384 8.05138 82.3868 8.22685C82.5028 8.10012 82.6382 7.99289 82.7253 7.85641C83.4895 6.62813 84.4761 5.68254 85.9367 5.39984C88.3936 4.91243 91.1117 5.48758 92.4756 7.88566C93.114 8.99696 93.3074 10.235 93.3171 11.4925C93.3461 14.8264 93.3171 18.1506 93.3365 21.4845C93.3365 21.8842 93.2204 22.0207 92.8141 22.0109C91.9145 21.9817 91.0053 22.0012 90.1057 22.0012C89.4383 22.0012 89.4383 22.0012 89.4383 21.348C89.4383 18.638 89.4576 15.9182 89.4189 13.2082C89.4093 12.3894 89.2835 11.551 89.0514 10.7711C88.5967 9.26991 87.3199 8.53879 85.7723 8.7825C83.77 9.09444 82.5318 10.4982 82.5028 12.5551C82.4641 15.4893 82.4448 18.4333 82.4448 21.3675C82.4448 21.8452 82.3287 22.0304 81.8257 22.0109C80.9261 21.9719 80.0169 21.9817 79.1173 22.0109C78.682 22.0207 78.566 21.855 78.566 21.4455C78.5853 18.911 78.5756 16.3764 78.5756 13.8419Z" fill="#1C1C1C"/>
<path d="M59.8658 11.6181C59.8658 14.8838 59.8562 18.1397 59.8755 21.4054C59.8755 21.8635 59.7691 22.039 59.2855 22.0195C58.3375 21.9805 57.3896 22 56.4319 22.0195C56.0644 22.0293 55.958 21.8928 55.958 21.5419C55.9676 14.9325 55.9676 8.32318 55.958 1.72359C55.958 1.31417 56.1127 1.22643 56.4706 1.23618C57.4186 1.25568 58.3762 1.26542 59.3241 1.23618C59.7498 1.22643 59.8755 1.36291 59.8755 1.79183C59.8562 5.05751 59.8658 8.34268 59.8658 11.6181Z" fill="#1C1C1C"/>
</svg>
